<?xml version="1.0" standalone="no"?>
<!DOCTYPE svg PUBLIC "-//W3C//DTD SVG 20010904//EN"
 "http://www.w3.org/TR/2001/REC-SVG-20010904/DTD/svg10.dtd">
<svg version="1.0" xmlns="http://www.w3.org/2000/svg"
 width="16.000000pt" height="16.000000pt" viewBox="0 0 16.000000 16.000000"
 preserveAspectRatio="xMidYMid meet">
<metadata>
Created by potrace 1.11, written by Peter Selinger 2001-2013
</metadata>
<g transform="translate(0.000000,16.000000) scale(0.001296,-0.001296)"
fill="#000000" stroke="none">
<path d="M0 7680 l0 -1750 6175 0 6175 0 0 250 0 250 -3705 0 -3705 0 0 250 0
250 3705 0 3705 0 0 250 0 250 -3705 0 -3705 0 0 250 0 250 3705 0 3705 0 0
250 0 250 -3705 0 -3705 0 0 250 0 250 3705 0 3705 0 0 250 0 250 -6175 0
-6175 0 0 -1750z m526 1460 l69 -5 -53 -37 c-28 -21 -52 -44 -52 -51 0 -7 7
-35 16 -61 9 -26 14 -49 12 -51 -2 -3 -28 11 -56 31 l-51 36 -51 -37 c-28 -21
-53 -35 -55 -33 -3 3 4 31 15 63 11 32 20 59 20 60 0 2 -25 20 -56 41 l-57 39
70 3 70 3 13 41 c29 99 30 100 54 28 l23 -65 69 -5z m734 65 l22 -65 66 0 67
-1 -34 -27 c-83 -65 -77 -51 -53 -120 11 -34 18 -62 15 -62 -3 0 -28 16 -54
35 -27 19 -51 35 -54 35 -3 0 -27 -16 -54 -35 -26 -19 -51 -35 -54 -35 -3 0 4
28 15 62 24 69 30 55 -53 120 l-34 27 67 1 66 0 22 65 c12 36 23 65 25 65 2 0
13 -29 25 -65z m825 -4 l18 -60 70 -3 70 -3 -57 -39 c-31 -21 -56 -39 -56 -41
0 -1 9 -28 20 -60 11 -32 18 -60 15 -63 -2 -2 -27 12 -55 33 l-51 37 -51 -36
c-28 -20 -54 -34 -56 -31 -2 2 3 25 12 51 9 26 16 54 16 61 0 7 -24 30 -52 51
l-53 37 70 5 69 5 20 62 c11 34 22 60 26 58 4 -2 15 -31 25 -64z m911 -61 l69
-5 -53 -37 c-28 -21 -52 -44 -52 -51 0 -7 7 -35 16 -61 9 -26 14 -49 12 -51
-2 -3 -28 12 -56 31 l-51 36 -52 -37 c-28 -20 -53 -35 -55 -32 -2 2 5 30 16
62 11 32 20 59 20 60 0 2 -25 20 -56 41 l-57 39 70 3 70 3 13 41 c29 99 30
100 54 28 l23 -65 69 -5z m734 65 l22 -65 66 0 67 -1 -26 -22 c-14 -12 -38
-31 -54 -42 l-28 -21 21 -62 c11 -34 18 -62 15 -62 -3 0 -28 16 -54 35 -27 19
-51 35 -54 35 -3 0 -27 -16 -54 -35 -26 -19 -51 -35 -54 -35 -3 0 4 28 15 63
21 70 28 56 -53 119 l-34 27 67 1 66 0 22 65 c12 36 23 65 25 65 2 0 13 -29
25 -65z m825 -4 l18 -60 70 -3 70 -3 -57 -39 c-31 -21 -56 -39 -56 -41 0 -1 9
-28 20 -60 11 -32 18 -60 16 -62 -2 -3 -27 12 -55 32 l-52 37 -51 -36 c-28
-19 -54 -34 -56 -31 -2 2 3 25 12 51 9 26 16 54 16 61 0 7 -24 30 -52 51 l-53
37 70 5 69 5 20 62 c11 34 22 60 26 58 4 -2 15 -31 25 -64z m-3619 -411 l69
-5 -53 -38 c-28 -21 -52 -42 -52 -46 0 -4 9 -33 19 -64 11 -32 17 -57 14 -57
-4 0 -30 16 -59 36 l-53 37 -51 -38 c-28 -21 -53 -35 -55 -33 -3 3 4 31 15 63
11 32 18 60 16 62 -2 2 -27 22 -57 43 l-53 40 71 0 71 0 17 53 c9 28 19 59 22
67 3 9 15 -13 27 -50 l23 -65 69 -5z m738 58 l17 -58 71 0 72 0 -53 -40 c-30
-21 -55 -41 -57 -43 -2 -2 5 -30 16 -62 11 -32 18 -60 15 -63 -2 -2 -27 12
-55 33 l-51 38 -53 -37 c-29 -20 -55 -36 -59 -36 -3 0 3 25 14 57 10 31 19 60
19 64 0 4 -24 25 -52 46 l-53 38 70 5 69 5 20 63 c11 34 23 59 26 55 3 -5 14
-34 24 -65z m821 4 l20 -57 69 -5 70 -5 -52 -35 c-28 -19 -52 -42 -52 -51 0
-8 7 -37 16 -63 9 -26 14 -50 11 -53 -3 -3 -27 11 -53 31 -26 20 -50 36 -54
36 -4 0 -28 -16 -54 -36 -26 -20 -50 -34 -53 -31 -3 3 2 27 11 53 9 26 16 55
16 63 0 9 -24 32 -52 51 l-52 35 70 5 69 5 20 62 c11 33 22 59 25 56 3 -2 14
-30 25 -61z m823 2 l18 -59 69 -5 70 -5 -53 -38 c-28 -21 -52 -42 -52 -46 0
-4 9 -33 19 -64 11 -32 17 -57 14 -57 -4 0 -30 16 -59 36 l-53 37 -51 -38
c-28 -21 -53 -35 -55 -33 -3 3 4 31 15 63 11 32 18 60 16 62 -2 2 -27 22 -57
43 l-53 40 71 0 71 0 22 66 c12 36 24 64 26 61 2 -2 12 -30 22 -63z m826 -6
l17 -58 71 0 72 0 -53 -40 c-30 -21 -55 -41 -57 -43 -2 -2 5 -30 16 -62 11
-32 18 -60 15 -63 -2 -2 -27 12 -55 33 l-51 38 -53 -37 c-29 -20 -55 -36 -59
-36 -3 0 3 25 14 57 10 31 19 60 19 64 0 4 -24 25 -52 46 l-53 38 70 5 69 5
20 63 c11 34 23 59 26 55 3 -5 14 -34 24 -65z m-3618 -408 l69 -5 -53 -37
c-28 -21 -52 -44 -52 -51 0 -7 7 -35 16 -61 9 -26 14 -49 12 -51 -2 -3 -28 11
-56 31 l-51 36 -51 -37 c-28 -21 -53 -35 -55 -33 -3 3 4 31 15 63 11 32 20 59
20 60 0 2 -25 20 -56 41 l-57 39 70 3 70 3 13 41 c29 99 30 100 54 28 l23 -65
69 -5z m734 65 l22 -65 66 0 67 -1 -34 -27 c-83 -65 -77 -51 -53 -120 11 -34
18 -62 15 -62 -3 0 -28 16 -54 35 -27 19 -51 35 -54 35 -3 0 -27 -16 -54 -35
-26 -19 -51 -35 -54 -35 -3 0 4 28 15 62 24 69 30 55 -53 120 l-34 27 67 1 66
0 22 65 c12 36 23 65 25 65 2 0 13 -29 25 -65z m825 -4 l18 -60 70 -3 70 -3
-57 -39 c-31 -21 -56 -39 -56 -41 0 -1 9 -28 20 -60 11 -32 18 -60 15 -63 -2
-2 -27 12 -55 33 l-51 37 -51 -36 c-28 -20 -54 -34 -56 -31 -2 2 3 25 12 51 9
26 16 54 16 61 0 7 -24 30 -52 51 l-53 37 70 5 69 5 20 62 c11 34 22 60 26 58
4 -2 15 -31 25 -64z m911 -61 l69 -5 -53 -37 c-28 -21 -52 -44 -52 -51 0 -7 7
-35 16 -61 9 -26 14 -49 12 -51 -2 -3 -28 11 -56 31 l-51 36 -51 -37 c-28 -21
-53 -35 -55 -33 -3 3 4 31 15 63 11 32 20 59 20 60 0 2 -25 20 -56 41 l-57 39
70 3 70 3 13 41 c29 99 30 100 54 28 l23 -65 69 -5z m734 65 l22 -65 66 0 67
-1 -26 -22 c-14 -12 -38 -31 -54 -42 l-28 -21 21 -62 c11 -34 18 -62 15 -62
-3 0 -28 16 -54 35 -27 19 -51 35 -54 35 -3 0 -27 -16 -54 -35 -26 -19 -51
-35 -54 -35 -3 0 4 28 15 63 21 70 28 56 -53 119 l-34 27 67 1 66 0 22 65 c12
36 23 65 25 65 2 0 13 -29 25 -65z m825 -4 l18 -60 70 -3 70 -3 -57 -39 c-31
-21 -56 -39 -56 -41 0 -1 9 -28 20 -60 11 -32 18 -60 15 -63 -2 -2 -27 12 -55
33 l-51 37 -51 -36 c-28 -20 -54 -34 -56 -31 -2 2 3 25 12 51 9 26 16 54 16
61 0 7 -24 30 -52 51 l-53 37 70 5 69 5 20 62 c11 34 22 60 26 58 4 -2 15 -31
25 -64z m-3619 -411 l69 -5 -53 -38 c-28 -21 -52 -42 -52 -46 0 -4 9 -33 19
-64 11 -32 17 -57 14 -57 -4 0 -30 16 -59 36 l-53 37 -51 -38 c-28 -21 -53
-35 -55 -33 -3 3 4 31 15 63 11 32 18 60 16 62 -2 2 -27 22 -57 43 l-53 40 71
0 71 0 17 53 c9 28 19 59 22 67 3 9 15 -13 27 -50 l23 -65 69 -5z m738 58 l17
-58 71 0 72 0 -53 -40 c-30 -21 -55 -41 -57 -43 -2 -2 5 -30 16 -62 11 -32 18
-60 15 -63 -2 -2 -26 12 -53 32 -27 20 -53 36 -56 36 -4 0 -28 -16 -53 -35
-25 -19 -49 -35 -54 -35 -4 0 1 25 12 57 10 31 19 60 19 64 0 4 -24 25 -52 46
l-53 38 70 5 69 5 20 63 c11 34 23 59 26 55 3 -5 14 -34 24 -65z m821 9 l20
-62 69 -5 70 -5 -52 -35 c-28 -19 -52 -42 -52 -51 0 -8 7 -37 16 -63 9 -26 14
-50 11 -53 -3 -3 -27 11 -53 31 -26 20 -50 36 -54 36 -4 0 -28 -16 -54 -36
-26 -20 -50 -34 -53 -31 -3 3 2 27 11 53 9 26 16 55 16 63 0 9 -24 32 -52 51
l-52 35 70 5 69 5 20 62 c11 35 22 63 25 63 3 0 14 -28 25 -63z m823 -3 l18
-59 69 -5 70 -5 -53 -38 c-28 -21 -52 -42 -52 -46 0 -4 9 -33 19 -64 11 -32
16 -57 12 -57 -5 0 -29 16 -54 35 -25 19 -49 35 -53 35 -3 0 -29 -16 -56 -36
-27 -20 -51 -34 -53 -32 -3 3 4 31 15 63 11 32 18 60 16 62 -2 2 -27 22 -57
43 l-53 40 71 0 71 0 22 66 c12 36 24 64 26 61 2 -2 12 -30 22 -63z m826 -6
l17 -58 71 0 72 0 -53 -40 c-30 -21 -55 -41 -57 -43 -2 -2 5 -30 16 -62 11
-32 18 -60 15 -63 -2 -2 -27 12 -55 33 l-51 38 -53 -37 c-29 -20 -55 -36 -59
-36 -3 0 3 25 14 57 10 31 19 60 19 64 0 4 -24 25 -52 46 l-53 38 70 5 69 5
20 63 c11 34 23 59 26 55 3 -5 14 -34 24 -65z m-3618 -408 l69 -5 -53 -37
c-28 -21 -52 -44 -52 -51 0 -7 7 -35 16 -61 9 -26 14 -49 12 -51 -2 -3 -28 11
-56 31 l-51 36 -51 -37 c-28 -21 -53 -35 -55 -33 -3 3 4 31 15 63 11 32 20 59
20 60 0 2 -25 20 -56 41 l-57 39 70 3 70 3 13 41 c29 99 30 100 54 28 l23 -65
69 -5z m734 65 l22 -65 70 0 71 0 -56 -41 c-32 -22 -57 -44 -57 -48 0 -4 9
-33 19 -64 11 -32 17 -57 14 -57 -3 0 -28 16 -54 35 -27 19 -51 35 -54 35 -3
0 -27 -16 -54 -35 -26 -19 -51 -35 -54 -35 -3 0 3 25 14 57 10 31 19 60 19 64
0 4 -25 26 -57 48 l-56 41 71 0 70 0 22 65 c12 36 23 65 25 65 2 0 13 -29 25
-65z m825 -4 l18 -60 70 -3 70 -3 -57 -39 c-31 -21 -56 -39 -56 -41 0 -1 9
-28 20 -60 11 -32 18 -60 15 -63 -2 -2 -27 12 -55 33 l-51 37 -51 -36 c-28
-20 -54 -34 -56 -31 -2 2 3 25 12 51 9 26 16 54 16 61 0 7 -24 30 -52 51 l-53
37 70 5 69 5 20 62 c11 34 22 60 26 58 4 -2 15 -31 25 -64z m911 -61 l69 -5
-53 -37 c-28 -21 -52 -44 -52 -51 0 -7 7 -35 16 -61 9 -26 14 -49 12 -51 -2
-3 -28 11 -56 31 l-51 36 -51 -37 c-28 -21 -53 -35 -55 -33 -3 3 4 31 15 63
11 32 20 59 20 60 0 2 -25 20 -56 41 l-57 39 70 3 70 3 13 41 c29 99 30 100
54 28 l23 -65 69 -5z m734 65 l22 -65 71 0 72 0 -58 -41 c-31 -22 -57 -44 -57
-48 0 -4 9 -34 20 -66 11 -32 20 -60 20 -62 0 -2 -25 15 -55 37 -30 22 -57 40
-60 40 -3 0 -27 -16 -54 -35 -26 -19 -51 -35 -54 -35 -3 0 0 17 7 38 31 89 31
87 -31 131 l-56 41 71 0 70 0 22 65 c12 36 23 65 25 65 2 0 13 -29 25 -65z
m825 -4 l18 -60 70 -3 70 -3 -57 -39 c-31 -21 -56 -39 -56 -41 0 -1 9 -28 20
-60 11 -32 18 -60 15 -63 -2 -2 -27 12 -55 33 l-51 37 -51 -36 c-28 -20 -54
-34 -56 -31 -2 2 3 25 12 51 9 26 16 54 16 61 0 7 -24 30 -52 51 l-53 37 70 5
69 5 20 62 c11 34 22 60 26 58 4 -2 15 -31 25 -64z m-3619 -411 l69 -5 -53
-38 c-28 -21 -52 -42 -52 -46 0 -4 9 -33 19 -64 11 -32 17 -57 14 -57 -4 0
-30 16 -59 36 l-53 37 -51 -38 c-28 -21 -53 -35 -55 -33 -3 3 4 31 15 63 11
32 18 60 16 62 -2 2 -27 22 -57 43 l-53 40 71 0 71 0 17 53 c9 28 19 59 22 67
3 9 15 -13 27 -50 l23 -65 69 -5z m738 58 l17 -58 71 0 72 0 -53 -40 c-30 -21
-55 -41 -57 -43 -2 -2 5 -30 16 -62 11 -32 18 -60 15 -63 -2 -2 -26 12 -53 32
-27 20 -53 36 -56 36 -4 0 -28 -16 -53 -35 -25 -19 -49 -35 -54 -35 -4 0 1 25
12 57 10 31 19 60 19 64 0 4 -24 25 -52 46 l-53 38 70 5 69 5 20 63 c11 34 23
59 26 55 3 -5 14 -34 24 -65z m821 9 l20 -62 69 -5 70 -5 -52 -35 c-28 -19
-52 -42 -52 -51 0 -8 7 -37 16 -63 9 -26 14 -50 11 -53 -3 -3 -27 11 -53 31
-26 20 -50 36 -54 36 -4 0 -28 -16 -54 -36 -26 -20 -50 -34 -53 -31 -3 3 2 27
11 53 9 26 16 55 16 63 0 9 -24 32 -52 51 l-52 35 70 5 69 5 20 62 c11 35 22
63 25 63 3 0 14 -28 25 -63z m823 -3 l18 -59 69 -5 70 -5 -53 -38 c-28 -21
-52 -42 -52 -46 0 -4 9 -33 19 -64 11 -32 16 -57 12 -57 -5 0 -29 16 -54 35
-25 19 -49 35 -53 35 -3 0 -29 -16 -56 -36 -27 -20 -51 -34 -53 -32 -3 3 4 31
15 63 11 32 18 60 16 62 -2 2 -27 22 -57 43 l-53 40 71 0 71 0 22 66 c12 36
24 64 26 61 2 -2 12 -30 22 -63z m826 -6 l17 -58 71 0 72 0 -53 -40 c-30 -21
-55 -41 -57 -43 -2 -2 5 -30 16 -62 11 -32 18 -60 15 -63 -2 -2 -27 12 -55 33
l-51 38 -53 -37 c-29 -20 -55 -36 -59 -36 -3 0 3 25 14 57 10 31 19 60 19 64
0 4 -24 25 -52 46 l-53 38 70 5 69 5 20 63 c11 34 23 59 26 55 3 -5 14 -34 24
-65z m-3618 -408 l69 -5 -53 -37 c-28 -21 -52 -44 -52 -51 0 -7 7 -35 16 -61
9 -26 14 -49 12 -51 -2 -3 -28 11 -56 31 l-51 36 -51 -37 c-28 -21 -53 -35
-55 -33 -3 3 4 31 15 63 11 32 20 59 20 60 0 2 -25 20 -56 41 l-57 39 70 3 70
3 13 41 c29 99 30 100 54 28 l23 -65 69 -5z m734 65 l22 -65 66 0 67 -1 -34
-27 c-83 -65 -77 -51 -53 -120 11 -34 18 -62 15 -62 -3 0 -28 16 -54 35 -27
19 -51 35 -54 35 -3 0 -27 -16 -54 -35 -26 -19 -51 -35 -54 -35 -3 0 4 28 15
62 24 69 30 55 -53 120 l-34 27 67 1 66 0 22 65 c12 36 23 65 25 65 2 0 13
-29 25 -65z m825 -4 l18 -60 70 -3 70 -3 -57 -39 c-31 -21 -56 -39 -56 -41 0
-1 9 -28 20 -60 11 -32 18 -60 15 -63 -2 -2 -27 12 -55 33 l-51 37 -51 -36
c-28 -20 -54 -34 -56 -31 -2 2 3 25 12 51 9 26 16 54 16 61 0 7 -24 30 -52 51
l-53 37 70 5 69 5 20 62 c11 34 22 60 26 58 4 -2 15 -31 25 -64z m911 -61 l69
-5 -53 -37 c-28 -21 -52 -44 -52 -51 0 -7 7 -35 16 -61 9 -26 14 -49 12 -51
-2 -3 -28 11 -56 31 l-51 36 -51 -37 c-28 -21 -53 -35 -55 -33 -3 3 4 31 15
63 11 32 20 59 20 60 0 2 -25 20 -56 41 l-57 39 70 3 70 3 13 41 c29 99 30
100 54 28 l23 -65 69 -5z m734 65 l22 -65 66 0 67 -1 -34 -27 c-82 -65 -76
-52 -56 -113 10 -30 20 -60 23 -68 3 -8 -20 5 -51 27 -31 23 -59 42 -62 42 -3
0 -27 -16 -54 -35 -26 -19 -51 -35 -54 -35 -3 0 4 28 15 62 24 69 30 55 -53
120 l-34 27 67 1 66 0 22 65 c12 36 23 65 25 65 2 0 13 -29 25 -65z m825 -4
l18 -60 70 -3 70 -3 -57 -39 c-31 -21 -56 -39 -56 -41 0 -1 9 -28 20 -60 11
-32 18 -60 15 -63 -2 -2 -27 12 -55 33 l-51 37 -51 -36 c-28 -20 -54 -34 -56
-31 -2 2 3 25 12 51 9 26 16 54 16 61 0 7 -24 30 -52 51 l-53 37 70 5 69 5 20
62 c11 34 22 60 26 58 4 -2 15 -31 25 -64z m-3619 -411 l69 -5 -53 -38 c-28
-21 -52 -42 -52 -46 0 -4 9 -33 19 -64 11 -32 17 -57 14 -57 -4 0 -30 16 -59
36 l-53 37 -51 -38 c-28 -21 -53 -35 -55 -33 -3 3 4 31 15 63 11 32 18 60 16
62 -2 2 -27 22 -57 43 l-53 40 71 0 71 0 17 53 c9 28 19 59 22 67 3 9 15 -13
27 -50 l23 -65 69 -5z m738 58 l17 -58 71 0 72 0 -53 -40 c-30 -21 -55 -41
-57 -43 -2 -2 5 -30 16 -62 11 -32 18 -60 15 -63 -2 -2 -27 12 -55 33 l-51 38
-53 -37 c-29 -20 -55 -36 -59 -36 -3 0 3 25 14 57 10 31 19 60 19 64 0 4 -24
25 -52 46 l-53 38 70 5 69 5 20 63 c11 34 23 59 26 55 3 -5 14 -34 24 -65z
m821 9 l20 -62 69 -5 70 -5 -52 -35 c-28 -19 -52 -42 -52 -51 0 -8 7 -37 16
-63 9 -26 14 -50 11 -53 -3 -3 -27 11 -53 31 -26 20 -50 36 -54 36 -4 0 -28
-16 -54 -36 -26 -20 -50 -34 -53 -31 -3 3 2 27 11 53 9 26 16 53 16 61 0 7
-23 30 -51 50 l-50 38 68 5 68 5 20 62 c11 35 22 63 25 63 3 0 14 -28 25 -63z
m823 -3 l18 -59 69 -5 70 -5 -53 -38 c-28 -21 -52 -42 -52 -46 0 -4 9 -33 19
-64 11 -32 16 -57 12 -57 -5 0 -29 16 -54 35 -25 19 -49 35 -53 35 -3 0 -29
-16 -56 -36 -27 -20 -51 -34 -53 -32 -3 3 4 31 15 63 11 32 18 60 16 62 -2 2
-27 22 -57 43 l-53 40 71 0 71 0 22 66 c12 36 24 64 26 61 2 -2 12 -30 22 -63z
m826 -6 l17 -58 71 0 72 0 -53 -40 c-30 -21 -55 -41 -57 -43 -2 -2 5 -30 16
-62 11 -32 18 -60 15 -63 -2 -2 -27 12 -55 33 l-51 38 -53 -37 c-29 -20 -55
-36 -59 -36 -3 0 3 25 14 57 10 31 19 60 19 64 0 4 -24 25 -52 46 l-53 38 70
5 69 5 20 63 c11 34 23 59 26 55 3 -5 14 -34 24 -65z m-3618 -408 l69 -5 -53
-37 c-28 -21 -52 -44 -52 -51 0 -7 7 -35 16 -61 9 -26 14 -49 12 -51 -2 -3
-28 11 -56 31 l-51 36 -51 -37 c-28 -21 -53 -35 -55 -33 -3 3 4 31 15 63 11
32 20 59 20 60 0 2 -25 20 -56 41 l-57 39 70 3 70 3 13 41 c29 99 30 100 54
28 l23 -65 69 -5z m734 65 l22 -65 66 0 67 -1 -34 -27 c-83 -65 -77 -51 -53
-120 11 -34 18 -62 15 -62 -3 0 -28 16 -54 35 -27 19 -51 35 -54 35 -3 0 -27
-16 -54 -35 -26 -19 -51 -35 -54 -35 -3 0 4 28 15 62 24 69 30 55 -53 120
l-34 27 67 1 66 0 22 65 c12 36 23 65 25 65 2 0 13 -29 25 -65z m825 -4 l18
-60 70 -3 70 -3 -57 -39 c-31 -21 -56 -39 -56 -41 0 -1 9 -28 20 -60 11 -32
18 -60 15 -63 -2 -2 -27 12 -55 33 l-51 37 -51 -36 c-28 -20 -54 -34 -56 -31
-2 2 3 25 12 51 9 26 16 54 16 61 0 7 -24 30 -52 51 l-53 37 70 5 69 5 20 62
c11 34 22 60 26 58 4 -2 15 -31 25 -64z m911 -61 l69 -5 -53 -37 c-28 -21 -52
-44 -52 -51 0 -7 7 -35 16 -61 9 -26 14 -49 12 -51 -2 -3 -28 11 -56 31 l-51
36 -51 -37 c-28 -21 -53 -35 -55 -33 -3 3 4 31 15 63 11 32 20 59 20 60 0 2
-25 20 -56 41 l-57 39 70 3 70 3 13 41 c29 99 30 100 54 28 l23 -65 69 -5z
m734 65 l22 -65 66 0 67 -1 -34 -27 c-82 -65 -76 -52 -56 -113 10 -30 20 -60
23 -68 3 -8 -20 5 -51 27 -31 23 -59 42 -62 42 -3 0 -27 -16 -54 -35 -26 -19
-51 -35 -54 -35 -3 0 4 28 15 62 24 69 30 55 -53 120 l-34 27 67 1 66 0 22 65
c12 36 23 65 25 65 2 0 13 -29 25 -65z m825 -4 l18 -60 70 -3 70 -3 -57 -39
c-31 -21 -56 -39 -56 -41 0 -1 9 -28 20 -60 11 -32 18 -60 15 -63 -2 -2 -27
12 -55 33 l-51 37 -51 -36 c-28 -20 -54 -34 -56 -31 -2 2 3 25 12 51 9 26 16
54 16 61 0 7 -24 30 -52 51 l-53 37 70 5 69 5 20 62 c11 34 22 60 26 58 4 -2
15 -31 25 -64z"/>
<path d="M0 5180 l0 -250 6175 0 6175 0 0 250 0 250 -6175 0 -6175 0 0 -250z"/>
<path d="M0 4180 l0 -250 6175 0 6175 0 0 250 0 250 -6175 0 -6175 0 0 -250z"/>
<path d="M0 3180 l0 -250 6175 0 6175 0 0 250 0 250 -6175 0 -6175 0 0 -250z"/>
</g>
</svg>
